<svg width="48" height="48" viewBox="0 0 48 48" fill="none" xmlns="http://www.w3.org/2000/svg">
<path d="M23.0594 45.0575C19.7421 45.0575 16.6877 44.4853 13.8963 43.341C11.1049 42.1967 8.6574 40.6028 6.55373 38.5594C4.49052 36.516 2.87231 34.1252 1.69912 31.387C0.566372 28.6079 0 25.6245 0 22.4368C0 19.249 0.566372 16.3065 1.69912 13.6092C2.83186 10.871 4.42984 8.48021 6.49305 6.43678C8.55626 4.39336 10.9836 2.81992 13.775 1.71648C16.5664 0.572159 19.6207 0 22.9381 0C26.2554 0 29.3097 0.572159 32.1011 1.71648C34.8925 2.81992 37.3198 4.39336 39.3831 6.43678C41.4463 8.48021 43.0442 10.871 44.177 13.6092C45.3502 16.3474 45.9368 19.3103 45.9368 22.4981C45.9368 25.6858 45.3502 28.6488 44.177 31.387C43.0442 34.1252 41.4463 36.5364 39.3831 38.6207C37.3198 40.6641 34.8925 42.258 32.1011 43.4023C29.3502 44.5057 26.3363 45.0575 23.0594 45.0575ZM22.9381 35.249C25.3654 35.249 27.469 34.7178 29.2491 33.6552C31.0291 32.5926 32.4045 31.1009 33.3755 29.1801C34.3464 27.2593 34.8319 25.0115 34.8319 22.4368C34.8319 20.5568 34.5487 18.8404 33.9823 17.2874C33.4564 15.7344 32.6675 14.4061 31.6157 13.3027C30.5638 12.1584 29.3097 11.2797 27.8533 10.6667C26.397 10.0536 24.7585 9.74713 22.9381 9.74713C20.5512 9.74713 18.4475 10.2784 16.6271 11.341C14.847 12.3627 13.4716 13.834 12.5006 15.7548C11.5297 17.6756 11.0442 19.9029 11.0442 22.4368C11.0442 24.3985 11.3274 26.1762 11.8938 27.7701C12.4602 29.3231 13.2491 30.6718 14.2604 31.8161C15.3123 32.9195 16.5664 33.7778 18.0228 34.3908C19.5196 34.963 21.158 35.249 22.9381 35.249ZM41.9924 48L29.2491 35.1264L35.3173 29.0575L48 41.8697L41.9924 48Z" fill="#3C868D"/>
</svg>
